<mxfile host="app.diagrams.net" agent="Mozilla/5.0 (Macintosh; Intel Mac OS X 10_15_7) AppleWebKit/537.36 (KHTML, like Gecko) Chrome/137.0.0.0 Safari/537.36" version="26.1.1">
  <diagram name="Page-1" id="b3kSgrx2vGMmETdr_YDn">
    <mxGraphModel dx="1224" dy="726" grid="1" gridSize="10" guides="1" tooltips="1" connect="1" arrows="1" fold="1" page="1" pageScale="1" pageWidth="850" pageHeight="1100" math="0" shadow="0">
      <root>
        <mxCell id="0" />
        <mxCell id="1" parent="0" />
        <mxCell id="GjXdtXDcGyxyJpDaa6RI-1" value="AWS Cloud" style="points=[[0,0],[0.25,0],[0.5,0],[0.75,0],[1,0],[1,0.25],[1,0.5],[1,0.75],[1,1],[0.75,1],[0.5,1],[0.25,1],[0,1],[0,0.75],[0,0.5],[0,0.25]];outlineConnect=0;gradientColor=none;html=1;whiteSpace=wrap;fontSize=12;fontStyle=0;container=1;pointerEvents=0;collapsible=0;recursiveResize=0;shape=mxgraph.aws4.group;grIcon=mxgraph.aws4.group_aws_cloud_alt;strokeColor=#232F3E;fillColor=none;verticalAlign=top;align=left;spacingLeft=30;fontColor=#232F3E;dashed=0;" vertex="1" parent="1">
          <mxGeometry x="240" y="80" width="600" height="360" as="geometry" />
        </mxCell>
        <mxCell id="GjXdtXDcGyxyJpDaa6RI-10" value="Internet" style="sketch=0;outlineConnect=0;fontColor=#232F3E;gradientColor=none;fillColor=#232F3D;strokeColor=none;dashed=0;verticalLabelPosition=bottom;verticalAlign=top;align=center;html=1;fontSize=12;fontStyle=0;aspect=fixed;pointerEvents=1;shape=mxgraph.aws4.internet;" vertex="1" parent="1">
          <mxGeometry x="52.13" y="197.84" width="133.75" height="82.31" as="geometry" />
        </mxCell>
        <mxCell id="GjXdtXDcGyxyJpDaa6RI-17" style="edgeStyle=orthogonalEdgeStyle;rounded=0;orthogonalLoop=1;jettySize=auto;html=1;strokeWidth=3;endArrow=blockThin;endFill=1;strokeColor=#FF8000;" edge="1" parent="1" source="GjXdtXDcGyxyJpDaa6RI-16">
          <mxGeometry relative="1" as="geometry">
            <mxPoint x="119" y="310" as="targetPoint" />
          </mxGeometry>
        </mxCell>
        <mxCell id="GjXdtXDcGyxyJpDaa6RI-18" value="SSH" style="edgeLabel;html=1;align=center;verticalAlign=middle;resizable=0;points=[];" vertex="1" connectable="0" parent="GjXdtXDcGyxyJpDaa6RI-17">
          <mxGeometry x="-0.125" relative="1" as="geometry">
            <mxPoint as="offset" />
          </mxGeometry>
        </mxCell>
        <mxCell id="GjXdtXDcGyxyJpDaa6RI-16" value="Admin" style="sketch=0;outlineConnect=0;fontColor=#232F3E;gradientColor=none;fillColor=#232F3D;strokeColor=none;dashed=0;verticalLabelPosition=bottom;verticalAlign=top;align=center;html=1;fontSize=12;fontStyle=0;aspect=fixed;pointerEvents=1;shape=mxgraph.aws4.user;" vertex="1" parent="1">
          <mxGeometry x="80" y="360" width="78" height="78" as="geometry" />
        </mxCell>
        <mxCell id="GjXdtXDcGyxyJpDaa6RI-20" style="edgeStyle=orthogonalEdgeStyle;rounded=0;orthogonalLoop=1;jettySize=auto;html=1;strokeWidth=3;endArrow=blockThin;endFill=1;strokeColor=#3399FF;" edge="1" parent="1" target="GjXdtXDcGyxyJpDaa6RI-10">
          <mxGeometry relative="1" as="geometry">
            <mxPoint x="119" y="140" as="sourcePoint" />
          </mxGeometry>
        </mxCell>
        <mxCell id="GjXdtXDcGyxyJpDaa6RI-21" value="HTTP" style="edgeLabel;html=1;align=center;verticalAlign=middle;resizable=0;points=[];" vertex="1" connectable="0" parent="GjXdtXDcGyxyJpDaa6RI-20">
          <mxGeometry x="-0.1426" y="1" relative="1" as="geometry">
            <mxPoint as="offset" />
          </mxGeometry>
        </mxCell>
        <mxCell id="GjXdtXDcGyxyJpDaa6RI-19" value="User" style="sketch=0;outlineConnect=0;fontColor=#232F3E;gradientColor=none;fillColor=#232F3D;strokeColor=none;dashed=0;verticalLabelPosition=bottom;verticalAlign=top;align=center;html=1;fontSize=12;fontStyle=0;aspect=fixed;pointerEvents=1;shape=mxgraph.aws4.user;" vertex="1" parent="1">
          <mxGeometry x="80" y="40" width="78" height="78" as="geometry" />
        </mxCell>
        <mxCell id="GjXdtXDcGyxyJpDaa6RI-2" value="Public subnet" style="points=[[0,0],[0.25,0],[0.5,0],[0.75,0],[1,0],[1,0.25],[1,0.5],[1,0.75],[1,1],[0.75,1],[0.5,1],[0.25,1],[0,1],[0,0.75],[0,0.5],[0,0.25]];outlineConnect=0;gradientColor=none;html=1;whiteSpace=wrap;fontSize=12;fontStyle=0;container=1;pointerEvents=0;collapsible=0;recursiveResize=0;shape=mxgraph.aws4.group;grIcon=mxgraph.aws4.group_security_group;grStroke=0;strokeColor=#7AA116;fillColor=#F2F6E8;verticalAlign=top;align=left;spacingLeft=30;fontColor=#248814;dashed=0;" vertex="1" parent="1">
          <mxGeometry x="360" y="159" width="160" height="201" as="geometry" />
        </mxCell>
        <mxCell id="GjXdtXDcGyxyJpDaa6RI-5" value="&lt;div&gt;&lt;span&gt;&lt;font&gt;Public Server&lt;/font&gt;&lt;/span&gt;&lt;/div&gt;&lt;div&gt;&lt;span&gt;&lt;font style=&quot;color: rgb(51, 153, 255);&quot;&gt;&lt;b&gt;Reverse Proxy&lt;/b&gt;&lt;/font&gt;&lt;/span&gt;&lt;/div&gt;&lt;div&gt;&lt;font style=&quot;color: rgb(0, 204, 0);&quot;&gt;&lt;b&gt;NAT Instance&lt;/b&gt;&lt;/font&gt;&lt;/div&gt;&lt;div&gt;&lt;font style=&quot;color: rgb(255, 128, 0);&quot;&gt;&lt;b&gt;Bastion Host&lt;/b&gt;&lt;/font&gt;&lt;/div&gt;" style="sketch=0;points=[[0,0,0],[0.25,0,0],[0.5,0,0],[0.75,0,0],[1,0,0],[0,1,0],[0.25,1,0],[0.5,1,0],[0.75,1,0],[1,1,0],[0,0.25,0],[0,0.5,0],[0,0.75,0],[1,0.25,0],[1,0.5,0],[1,0.75,0]];outlineConnect=0;fontColor=#232F3E;fillColor=#ED7100;strokeColor=#ffffff;dashed=0;verticalLabelPosition=bottom;verticalAlign=top;align=center;html=1;fontSize=12;fontStyle=0;aspect=fixed;shape=mxgraph.aws4.resourceIcon;resIcon=mxgraph.aws4.ec2;" vertex="1" parent="GjXdtXDcGyxyJpDaa6RI-2">
          <mxGeometry x="41" y="40" width="78" height="78" as="geometry" />
        </mxCell>
        <mxCell id="GjXdtXDcGyxyJpDaa6RI-3" value="Private subnet" style="points=[[0,0],[0.25,0],[0.5,0],[0.75,0],[1,0],[1,0.25],[1,0.5],[1,0.75],[1,1],[0.75,1],[0.5,1],[0.25,1],[0,1],[0,0.75],[0,0.5],[0,0.25]];outlineConnect=0;gradientColor=none;html=1;whiteSpace=wrap;fontSize=12;fontStyle=0;container=1;pointerEvents=0;collapsible=0;recursiveResize=0;shape=mxgraph.aws4.group;grIcon=mxgraph.aws4.group_security_group;grStroke=0;strokeColor=#00A4A6;fillColor=#E6F6F7;verticalAlign=top;align=left;spacingLeft=30;fontColor=#147EBA;dashed=0;" vertex="1" parent="1">
          <mxGeometry x="600" y="159" width="160" height="201" as="geometry" />
        </mxCell>
        <mxCell id="GjXdtXDcGyxyJpDaa6RI-6" value="Private Server" style="sketch=0;points=[[0,0,0],[0.25,0,0],[0.5,0,0],[0.75,0,0],[1,0,0],[0,1,0],[0.25,1,0],[0.5,1,0],[0.75,1,0],[1,1,0],[0,0.25,0],[0,0.5,0],[0,0.75,0],[1,0.25,0],[1,0.5,0],[1,0.75,0]];outlineConnect=0;fontColor=#232F3E;fillColor=#ED7100;strokeColor=#ffffff;dashed=0;verticalLabelPosition=bottom;verticalAlign=top;align=center;html=1;fontSize=12;fontStyle=0;aspect=fixed;shape=mxgraph.aws4.resourceIcon;resIcon=mxgraph.aws4.ec2;" vertex="1" parent="GjXdtXDcGyxyJpDaa6RI-3">
          <mxGeometry x="41" y="40" width="78" height="78" as="geometry" />
        </mxCell>
        <mxCell id="GjXdtXDcGyxyJpDaa6RI-14" style="edgeStyle=orthogonalEdgeStyle;rounded=0;orthogonalLoop=1;jettySize=auto;html=1;strokeWidth=3;endArrow=blockThin;endFill=1;strokeColor=#FF8000;" edge="1" parent="1" source="GjXdtXDcGyxyJpDaa6RI-5" target="GjXdtXDcGyxyJpDaa6RI-6">
          <mxGeometry relative="1" as="geometry">
            <Array as="points">
              <mxPoint x="560" y="259" />
              <mxPoint x="560" y="259" />
            </Array>
          </mxGeometry>
        </mxCell>
        <mxCell id="GjXdtXDcGyxyJpDaa6RI-15" value="SSH" style="edgeLabel;html=1;align=center;verticalAlign=middle;resizable=0;points=[];" vertex="1" connectable="0" parent="GjXdtXDcGyxyJpDaa6RI-14">
          <mxGeometry x="-0.0741" y="3" relative="1" as="geometry">
            <mxPoint x="6" y="3" as="offset" />
          </mxGeometry>
        </mxCell>
        <mxCell id="GjXdtXDcGyxyJpDaa6RI-23" style="edgeStyle=orthogonalEdgeStyle;rounded=0;orthogonalLoop=1;jettySize=auto;html=1;strokeWidth=3;endArrow=blockThin;endFill=1;strokeColor=#3399FF;" edge="1" parent="1" source="GjXdtXDcGyxyJpDaa6RI-5" target="GjXdtXDcGyxyJpDaa6RI-6">
          <mxGeometry relative="1" as="geometry">
            <Array as="points">
              <mxPoint x="560" y="219" />
              <mxPoint x="560" y="219" />
            </Array>
          </mxGeometry>
        </mxCell>
        <mxCell id="GjXdtXDcGyxyJpDaa6RI-24" value="HTTP" style="edgeLabel;html=1;align=center;verticalAlign=middle;resizable=0;points=[];" vertex="1" connectable="0" parent="GjXdtXDcGyxyJpDaa6RI-23">
          <mxGeometry x="-0.0247" y="1" relative="1" as="geometry">
            <mxPoint as="offset" />
          </mxGeometry>
        </mxCell>
        <mxCell id="GjXdtXDcGyxyJpDaa6RI-25" style="edgeStyle=orthogonalEdgeStyle;rounded=0;orthogonalLoop=1;jettySize=auto;html=1;strokeWidth=3;endArrow=blockThin;endFill=1;strokeColor=#00CC00;" edge="1" parent="1" source="GjXdtXDcGyxyJpDaa6RI-6" target="GjXdtXDcGyxyJpDaa6RI-5">
          <mxGeometry relative="1" as="geometry" />
        </mxCell>
        <mxCell id="GjXdtXDcGyxyJpDaa6RI-26" value="HTTP" style="edgeLabel;html=1;align=center;verticalAlign=middle;resizable=0;points=[];" vertex="1" connectable="0" parent="GjXdtXDcGyxyJpDaa6RI-25">
          <mxGeometry x="0.2963" y="-1" relative="1" as="geometry">
            <mxPoint x="24" y="1" as="offset" />
          </mxGeometry>
        </mxCell>
        <mxCell id="GjXdtXDcGyxyJpDaa6RI-22" style="edgeStyle=orthogonalEdgeStyle;rounded=0;orthogonalLoop=1;jettySize=auto;html=1;entryX=0;entryY=0.25;entryDx=0;entryDy=0;entryPerimeter=0;strokeWidth=3;endArrow=blockThin;endFill=1;strokeColor=#3399FF;" edge="1" parent="1" source="GjXdtXDcGyxyJpDaa6RI-10" target="GjXdtXDcGyxyJpDaa6RI-5">
          <mxGeometry relative="1" as="geometry">
            <mxPoint x="170" y="170" as="sourcePoint" />
            <Array as="points">
              <mxPoint x="190" y="219" />
            </Array>
          </mxGeometry>
        </mxCell>
        <mxCell id="GjXdtXDcGyxyJpDaa6RI-29" value="HTTP" style="edgeLabel;html=1;align=center;verticalAlign=middle;resizable=0;points=[];" vertex="1" connectable="0" parent="GjXdtXDcGyxyJpDaa6RI-22">
          <mxGeometry x="0.0696" y="-1" relative="1" as="geometry">
            <mxPoint x="-19" as="offset" />
          </mxGeometry>
        </mxCell>
        <mxCell id="GjXdtXDcGyxyJpDaa6RI-27" style="edgeStyle=orthogonalEdgeStyle;rounded=0;orthogonalLoop=1;jettySize=auto;html=1;strokeWidth=3;endArrow=blockThin;endFill=1;strokeColor=#00CC00;" edge="1" parent="1" source="GjXdtXDcGyxyJpDaa6RI-5" target="GjXdtXDcGyxyJpDaa6RI-10">
          <mxGeometry relative="1" as="geometry" />
        </mxCell>
        <mxCell id="GjXdtXDcGyxyJpDaa6RI-28" value="HTTP" style="edgeLabel;html=1;align=center;verticalAlign=middle;resizable=0;points=[];" vertex="1" connectable="0" parent="GjXdtXDcGyxyJpDaa6RI-27">
          <mxGeometry x="-0.148" relative="1" as="geometry">
            <mxPoint x="-28" y="1" as="offset" />
          </mxGeometry>
        </mxCell>
        <mxCell id="GjXdtXDcGyxyJpDaa6RI-12" style="edgeStyle=orthogonalEdgeStyle;rounded=0;orthogonalLoop=1;jettySize=auto;html=1;strokeWidth=3;endArrow=blockThin;endFill=1;fillColor=#ffcc99;strokeColor=#FF8000;" edge="1" parent="1" source="GjXdtXDcGyxyJpDaa6RI-10" target="GjXdtXDcGyxyJpDaa6RI-5">
          <mxGeometry relative="1" as="geometry">
            <mxPoint x="182.58678159104466" y="270" as="sourcePoint" />
            <mxPoint x="361" y="270" as="targetPoint" />
            <Array as="points">
              <mxPoint x="270" y="260" />
              <mxPoint x="270" y="260" />
            </Array>
          </mxGeometry>
        </mxCell>
        <mxCell id="GjXdtXDcGyxyJpDaa6RI-13" value="SSH" style="edgeLabel;html=1;align=center;verticalAlign=middle;resizable=0;points=[];" vertex="1" connectable="0" parent="GjXdtXDcGyxyJpDaa6RI-12">
          <mxGeometry x="-0.015" y="1" relative="1" as="geometry">
            <mxPoint x="-11" as="offset" />
          </mxGeometry>
        </mxCell>
      </root>
    </mxGraphModel>
  </diagram>
</mxfile>
